<svg xmlns="http://www.w3.org/2000/svg">

<symbol  viewBox="0 0 24 24" id="burger2">
<path d="M16 5.17497L18.83 8.00497L16 10.835L13.17 8.00497L16 5.17497ZM8.34003 5.65497V9.65497H4.34003V5.65497H8.34003ZM18.34 15.655V19.655H14.34V15.655H18.34ZM8.34003 15.655V19.655H4.34003V15.655H8.34003ZM16 2.34497L10.34 7.99497L16 13.655L21.66 7.99497L16 2.34497ZM10.34 3.65497H2.34003V11.655H10.34V3.65497ZM20.34 13.655H12.34V21.655H20.34V13.655ZM10.34 13.655H2.34003V21.655H10.34V13.655Z" fill="#0D0F12"/>
</symbol>

<symbol  viewBox="0 0 16 16" fill="none" id="graph1">
<path fill-rule="evenodd" clip-rule="evenodd" d="M9.97976 0.246772C12.8073 0.966614 15.0333 3.19258 15.7531 6.02016C16.0257 7.09058 15.1046 7.99992 14 7.99992H10C8.89543 7.99992 8 7.10449 8 5.99992V1.99992C8 0.895348 8.90934 -0.0257366 9.97976 0.246772ZM0 8.79993C0 4.9577 3.0096 1.81841 6.8 1.61085V6.39995C6.8 7.94635 8.0536 9.19995 9.6 9.19995H14.3891C14.1815 12.9903 11.0422 15.9999 7.2 15.9999C3.22355 15.9999 0 12.7764 0 8.79993Z" fill="white"/>
</symbol>

<symbol  viewBox="0 0 95 49" fill="none" id="graph2">
<g clip-path="url(#clip0_3_232)">
<path d="M94.7511 0.273682H0.248901V48.7213H94.7511V0.273682Z" stroke="#A9C2CB" stroke-miterlimit="10"/>
<path d="M9.86688 0.273682V48.7213" stroke="#A9C2CB" stroke-miterlimit="10"/>
<path d="M20.839 0.273682V48.7213" stroke="#A9C2CB" stroke-miterlimit="10"/>
<path d="M31.816 0.273682V48.7213" stroke="#A9C2CB" stroke-miterlimit="10"/>
<path d="M42.7881 0.273682V48.7213" stroke="#A9C2CB" stroke-miterlimit="10"/>
<path d="M53.7601 0.273682V48.7213" stroke="#A9C2CB" stroke-miterlimit="10"/>
<path d="M64.7372 0.273682V48.7213" stroke="#A9C2CB" stroke-miterlimit="10"/>
<path d="M75.7093 0.273682V48.7213" stroke="#A9C2CB" stroke-miterlimit="10"/>
<path d="M86.6813 0.273682V48.7213" stroke="#A9C2CB" stroke-miterlimit="10"/>
<path d="M94.7511 0.273682H0.248901" stroke="#A9C2CB" stroke-width="1.11" stroke-miterlimit="10"/>
<path d="M94.7511 7.19543H0.248901" stroke="#A9C2CB" stroke-width="1.11" stroke-miterlimit="10"/>
<path d="M94.7511 14.1173H0.248901" stroke="#A9C2CB" stroke-width="1.11" stroke-miterlimit="10"/>
<path d="M94.7511 21.0391H0.248901" stroke="#A9C2CB" stroke-width="1.11" stroke-miterlimit="10"/>
<path d="M94.7511 27.9609H0.248901" stroke="#A9C2CB" stroke-width="1.11" stroke-miterlimit="10"/>
<path d="M94.7511 34.8777H0.248901" stroke="#A9C2CB" stroke-width="1.11" stroke-miterlimit="10"/>
<path d="M94.7511 41.7996H0.248901" stroke="#A9C2CB" stroke-width="1.11" stroke-miterlimit="10"/>
<path d="M94.7511 48.7213H0.248901" stroke="#A9C2CB" stroke-width="1.11" stroke-miterlimit="10"/>
<path d="M86.6813 13.6993H64.6974L42.8926 20.9396L31.6418 41.6055L20.8489 27.9162L9.86688 41.6055" stroke="url(#paint0_linear_3_232)" stroke-miterlimit="10"/>
<path d="M11.2757 41.6005C11.2757 41.879 11.1931 42.1513 11.0383 42.3829C10.8835 42.6145 10.6635 42.795 10.406 42.9016C10.1486 43.0081 9.86532 43.036 9.59203 42.9817C9.31874 42.9274 9.06771 42.7932 8.87068 42.5963C8.67365 42.3993 8.53947 42.1484 8.48511 41.8752C8.43075 41.6021 8.45865 41.3189 8.56528 41.0616C8.67191 40.8043 8.85249 40.5843 9.08418 40.4296C9.31586 40.2748 9.58825 40.1923 9.86689 40.1923C10.2405 40.1923 10.5989 40.3406 10.8631 40.6047C11.1273 40.8688 11.2757 41.227 11.2757 41.6005Z" fill="url(#paint1_linear_3_232)"/>
<path d="M20.8489 29.3293C21.627 29.3293 22.2578 28.6988 22.2578 27.9211C22.2578 27.1433 21.627 26.5128 20.8489 26.5128C20.0708 26.5128 19.4401 27.1433 19.4401 27.9211C19.4401 28.6988 20.0708 29.3293 20.8489 29.3293Z" fill="url(#paint2_linear_3_232)"/>
<path d="M33.0556 41.6005C33.0566 41.8804 32.9744 42.1544 32.8194 42.3875C32.6644 42.6207 32.4437 42.8026 32.1851 42.9102C31.9266 43.0178 31.6419 43.0462 31.3672 42.9918C31.0925 42.9374 30.8401 42.8027 30.6421 42.6048C30.444 42.4068 30.3093 42.1546 30.2549 41.88C30.2005 41.6054 30.2289 41.3208 30.3365 41.0624C30.4442 40.8039 30.6262 40.5833 30.8594 40.4284C31.0927 40.2735 31.3667 40.1913 31.6468 40.1923C32.02 40.1936 32.3776 40.3424 32.6415 40.6062C32.9054 40.87 33.0543 41.2274 33.0556 41.6005Z" fill="url(#paint3_linear_3_232)"/>
<path d="M44.3015 20.9395C44.3015 21.218 44.2188 21.4903 44.064 21.7219C43.9092 21.9535 43.6892 22.134 43.4318 22.2406C43.1743 22.3471 42.8911 22.375 42.6178 22.3207C42.3445 22.2664 42.0935 22.1322 41.8964 21.9353C41.6994 21.7383 41.5652 21.4874 41.5108 21.2142C41.4565 20.9411 41.4844 20.6579 41.591 20.4006C41.6976 20.1433 41.8782 19.9233 42.1099 19.7686C42.3416 19.6139 42.614 19.5313 42.8926 19.5313C43.0778 19.5306 43.2613 19.5666 43.4325 19.6371C43.6038 19.7077 43.7593 19.8114 43.8903 19.9423C44.0212 20.0732 44.125 20.2287 44.1956 20.3998C44.2661 20.571 44.3021 20.7544 44.3015 20.9395Z" fill="url(#paint4_linear_3_232)"/>
<path d="M64.6974 15.1075C65.4754 15.1075 66.1062 14.477 66.1062 13.6993C66.1062 12.9215 65.4754 12.291 64.6974 12.291C63.9193 12.291 63.2885 12.9215 63.2885 13.6993C63.2885 14.477 63.9193 15.1075 64.6974 15.1075Z" fill="url(#paint5_linear_3_232)"/>
<path d="M88.0952 13.6993C88.0961 13.9798 88.0135 14.2543 87.8579 14.4878C87.7022 14.7213 87.4806 14.9032 87.2211 15.0103C86.9617 15.1174 86.6763 15.1449 86.4012 15.0893C86.1261 15.0337 85.8737 14.8975 85.6763 14.6981C85.4789 14.4986 85.3453 14.245 85.2927 13.9694C85.24 13.6938 85.2705 13.4088 85.3804 13.1507C85.4904 12.8925 85.6747 12.6729 85.9099 12.5198C86.1451 12.3667 86.4206 12.2871 86.7012 12.291C87.0719 12.2963 87.4257 12.4468 87.6864 12.7102C87.9471 12.9735 88.0939 13.3287 88.0952 13.6993Z" fill="url(#paint6_linear_3_232)"/>
</g>
<defs>
<linearGradient id="paint0_linear_3_232" x1="9.67273" y1="27.7519" x2="86.6813" y2="27.7519" gradientUnits="userSpaceOnUse">
<stop stop-color="#171E27"/>
<stop offset="1" stop-color="#A9C2CB"/>
</linearGradient>
<linearGradient id="paint1_linear_3_232" x1="8.45804" y1="41.6055" x2="11.2757" y2="41.6055" gradientUnits="userSpaceOnUse">
<stop stop-color="#171E27"/>
<stop offset="1" stop-color="#A9C2CB"/>
</linearGradient>
<linearGradient id="paint2_linear_3_232" x1="19.4401" y1="27.9211" x2="22.2578" y2="27.9211" gradientUnits="userSpaceOnUse">
<stop stop-color="#171E27"/>
<stop offset="1" stop-color="#A9C2CB"/>
</linearGradient>
<linearGradient id="paint3_linear_3_232" x1="30.2329" y1="41.6055" x2="33.0556" y2="41.6055" gradientUnits="userSpaceOnUse">
<stop stop-color="#A9C2CB"/>
<stop offset="0.0001" stop-color="#171E27"/>
<stop offset="1" stop-color="#A9C2CB"/>
</linearGradient>
<linearGradient id="paint4_linear_3_232" x1="41.4838" y1="20.9395" x2="44.3015" y2="20.9395" gradientUnits="userSpaceOnUse">
<stop stop-color="#171E27"/>
<stop offset="1" stop-color="#A9C2CB"/>
</linearGradient>
<linearGradient id="paint5_linear_3_232" x1="63.2835" y1="13.6993" x2="66.1062" y2="13.6993" gradientUnits="userSpaceOnUse">
<stop stop-color="#171E27"/>
<stop offset="1" stop-color="#A9C2CB"/>
</linearGradient>
<linearGradient id="paint6_linear_3_232" x1="85.2725" y1="13.6993" x2="88.0952" y2="13.6993" gradientUnits="userSpaceOnUse">
<stop stop-color="#171E27"/>
<stop offset="1" stop-color="#A9C2CB"/>
</linearGradient>
<clipPath id="clip0_3_232">
<rect width="95" height="49" fill="white"/>
</clipPath>
</defs>
</symbol>

<symbol viewBox="0 0 47 47" fill="none" id="graph3">
<g clip-path="url(#clip0_3_257)">
<path d="M23.5297 23.5025L1.2337 16.2423C2.71234 11.4937 5.67997 7.34903 9.6963 4.42319C13.7126 1.49735 18.5637 -0.0537544 23.5297 9.13197e-06V23.5025Z" fill="#171E27" fill-opacity="0.6"/>
<path d="M23.5296 23.5025L37.3234 42.5139C32.2885 46.1772 26.0069 47.6872 19.8605 46.7119C13.714 45.7366 8.20608 42.3558 4.54827 37.3132C2.31857 34.3398 0.849402 30.8651 0.269026 27.1922C-0.31135 23.5193 0.0147052 19.7599 1.21873 16.2423L23.5296 23.5025Z" fill="#171E27" fill-opacity="0.8"/>
<path d="M23.5297 23.5025L37.3235 4.49109C39.8164 6.30462 41.9281 8.59232 43.5381 11.2235C45.148 13.8546 46.2246 16.7777 46.7063 19.8257C47.1881 22.8737 47.0655 25.9869 46.3457 28.9875C45.6258 31.988 44.3228 34.8171 42.5111 37.3132C41.08 39.3213 39.3271 41.0786 37.3235 42.5139L23.5297 23.5025Z" fill="#A9C2CB" fill-opacity="0.6"/>
<path d="M23.5297 23.5025V-7.55489e-06C28.4938 -0.0766497 33.3437 1.49369 37.3235 4.46626L23.5297 23.5025Z" fill="#171E27" fill-opacity="0.2"/>
</g>
<defs>
<clipPath id="clip0_3_257">
<rect width="47" height="47" fill="white"/>
</clipPath>
</defs>
</symbol>



<symbol  viewBox="0 0 16 12"  id="message2">
<path d="M14.5 0H1.50001C0.672854 0 0 0.672853 0 1.50001V10.5C0 11.3271 0.672854 12 1.50001 12H14.5C15.3271 12 16 11.3271 16 10.5V1.50001C16 0.672853 15.3271 0 14.5 0ZM14.5 0.999994C14.5679 0.999994 14.6325 1.01409 14.6916 1.0387L8 6.83838L1.30833 1.0387C1.36742 1.01412 1.43204 0.999994 1.49998 0.999994H14.5ZM14.5 11H1.50001C1.22414 11 0.999996 10.7759 0.999996 10.5V2.09521L7.67236 7.87792C7.76661 7.95944 7.8833 7.99999 8 7.99999C8.1167 7.99999 8.23339 7.95948 8.32764 7.87792L15 2.09521V10.5C15 10.7759 14.7759 11 14.5 11Z" />
</symbol>

<symbol  viewBox="0 0 10 16"  id="phone2">
<path d="M8.5 0H1.5C0.672848 0 0 0.672848 0 1.5V14.5C0 15.3272 0.672848 16 1.5 16H8.5C9.32715 16 10 15.3272 10 14.5V1.5C10 0.672848 9.32715 0 8.5 0ZM1.5 1H8.5C8.77588 1 9 1.22412 9 1.5V12H1V1.5C1 1.22412 1.22412 1 1.5 1ZM8.5 15H1.5C1.22412 15 1 14.7759 1 14.5V13H9V14.5C9 14.7759 8.77588 15 8.5 15Z" />
</symbol>



<symbol viewBox="0 0 14 14"  id="phone3">
<path d="M11.9958 9.12262L10.1576 8.91275C9.7162 8.8621 9.28199 9.01407 8.97081 9.32525L7.63924 10.6568C5.59123 9.61472 3.91229 7.94302 2.8702 5.88776L4.209 4.54895C4.52018 4.23776 4.67216 3.80355 4.6215 3.36211L4.41163 1.53843C4.32479 0.807506 3.70966 0.257507 2.97151 0.257507H1.71955C0.90179 0.257507 0.221532 0.937769 0.27219 1.75553C0.655739 7.93578 5.59847 12.8713 11.7714 13.2548C12.5892 13.3055 13.2695 12.6252 13.2695 11.8075V10.5555C13.2767 9.82459 12.7267 9.20946 11.9958 9.12262Z" fill="#212121"/>
</symbol>

<symbol  viewBox="0 0 16 12" id="email2">
<path d="M14 0H2C1.175 0 0.5075 0.675 0.5075 1.5L0.5 10.5C0.5 11.325 1.175 12 2 12H14C14.825 12 15.5 11.325 15.5 10.5V1.5C15.5 0.675 14.825 0 14 0ZM13.7 3.1875L8.3975 6.5025C8.1575 6.6525 7.8425 6.6525 7.6025 6.5025L2.3 3.1875C2.1125 3.0675 2 2.865 2 2.6475C2 2.145 2.5475 1.845 2.975 2.1075L8 5.25L13.025 2.1075C13.4525 1.845 14 2.145 14 2.6475C14 2.865 13.8875 3.0675 13.7 3.1875Z" />
</symbol>

<symbol  viewBox="0 0 20 20" id="linkedin2">
<g clip-path="url(#clip0_5769_5334)">
<path d="M19.9951 20V19.9992H20.0001V12.6642C20.0001 9.07587 19.2276 6.31171 15.0326 6.31171C13.0159 6.31171 11.6626 7.41837 11.1101 8.46754H11.0517V6.64671H7.07422V19.9992H11.2159V13.3875C11.2159 11.6467 11.5459 9.96337 13.7017 9.96337C15.8259 9.96337 15.8576 11.95 15.8576 13.4992V20H19.9951Z" />
<path d="M0.330078 6.64746H4.47675V20H0.330078V6.64746Z" />
<path d="M2.40167 0C1.07583 0 0 1.07583 0 2.40167C0 3.7275 1.07583 4.82583 2.40167 4.82583C3.7275 4.82583 4.80333 3.7275 4.80333 2.40167C4.8025 1.07583 3.72667 0 2.40167 0V0Z" />
</g>
<defs>
<clipPath id="clip0_5769_5334">
<rect width="20" height="20" fill="white"/>
</clipPath>
</defs>
</symbol>

<symbol  viewBox="0 0 20 20" id="facebook2">
<g clip-path="url(#clip0_5769_5340)">
<path d="M13.3308 3.32083H15.1566V0.140833C14.8416 0.0975 13.7583 0 12.4966 0C9.8641 0 8.06076 1.65583 8.06076 4.69917V7.5H5.15576V11.055H8.06076V20H11.6224V11.0558H14.4099L14.8524 7.50083H11.6216V5.05167C11.6224 4.02417 11.8991 3.32083 13.3308 3.32083Z" />
</g>
<defs>
<clipPath id="clip0_5769_5340">
<rect width="20" height="20" fill="white"/>
</clipPath>
</defs>
</symbol>

<symbol  shape-rendering="geometricPrecision" text-rendering="geometricPrecision" id="twitter2" image-rendering="optimizeQuality" fill-rule="evenodd" clip-rule="evenodd" viewBox="0 0 512 462.799"><path fill-rule="nonzero" d="M403.229 0h78.506L310.219 196.04 512 462.799H354.002L230.261 301.007 88.669 462.799h-78.56l183.455-209.683L0 0h161.999l111.856 147.88L403.229 0zm-27.556 415.805h43.505L138.363 44.527h-46.68l283.99 371.278z"/></symbol>







</svg>