<svg xmlns="http://www.w3.org/2000/svg">

<symbol  viewBox="0 0 24 24" id="burger2">
<path d="M16 5.17497L18.83 8.00497L16 10.835L13.17 8.00497L16 5.17497ZM8.34003 5.65497V9.65497H4.34003V5.65497H8.34003ZM18.34 15.655V19.655H14.34V15.655H18.34ZM8.34003 15.655V19.655H4.34003V15.655H8.34003ZM16 2.34497L10.34 7.99497L16 13.655L21.66 7.99497L16 2.34497ZM10.34 3.65497H2.34003V11.655H10.34V3.65497ZM20.34 13.655H12.34V21.655H20.34V13.655ZM10.34 13.655H2.34003V21.655H10.34V13.655Z" fill="#0D0F12"/>
</symbol>

<symbol  viewBox="0 0 16 16" fill="none" id="graph1">
<path fill-rule="evenodd" clip-rule="evenodd" d="M9.97976 0.246772C12.8073 0.966614 15.0333 3.19258 15.7531 6.02016C16.0257 7.09058 15.1046 7.99992 14 7.99992H10C8.89543 7.99992 8 7.10449 8 5.99992V1.99992C8 0.895348 8.90934 -0.0257366 9.97976 0.246772ZM0 8.79993C0 4.9577 3.0096 1.81841 6.8 1.61085V6.39995C6.8 7.94635 8.0536 9.19995 9.6 9.19995H14.3891C14.1815 12.9903 11.0422 15.9999 7.2 15.9999C3.22355 15.9999 0 12.7764 0 8.79993Z" fill="white"/>
</symbol>

<symbol  viewBox="0 0 95 49" fill="none" id="graph2">
<g clip-path="url(#clip0_3_232)">
<path d="M94.7511 0.273682H0.248901V48.7213H94.7511V0.273682Z" stroke="#A9C2CB" stroke-miterlimit="10"/>
<path d="M9.86688 0.273682V48.7213" stroke="#A9C2CB" stroke-miterlimit="10"/>
<path d="M20.839 0.273682V48.7213" stroke="#A9C2CB" stroke-miterlimit="10"/>
<path d="M31.816 0.273682V48.7213" stroke="#A9C2CB" stroke-miterlimit="10"/>
<path d="M42.7881 0.273682V48.7213" stroke="#A9C2CB" stroke-miterlimit="10"/>
<path d="M53.7601 0.273682V48.7213" stroke="#A9C2CB" stroke-miterlimit="10"/>
<path d="M64.7372 0.273682V48.7213" stroke="#A9C2CB" stroke-miterlimit="10"/>
<path d="M75.7093 0.273682V48.7213" stroke="#A9C2CB" stroke-miterlimit="10"/>
<path d="M86.6813 0.273682V48.7213" stroke="#A9C2CB" stroke-miterlimit="10"/>
<path d="M94.7511 0.273682H0.248901" stroke="#A9C2CB" stroke-width="1.11" stroke-miterlimit="10"/>
<path d="M94.7511 7.19543H0.248901" stroke="#A9C2CB" stroke-width="1.11" stroke-miterlimit="10"/>
<path d="M94.7511 14.1173H0.248901" stroke="#A9C2CB" stroke-width="1.11" stroke-miterlimit="10"/>
<path d="M94.7511 21.0391H0.248901" stroke="#A9C2CB" stroke-width="1.11" stroke-miterlimit="10"/>
<path d="M94.7511 27.9609H0.248901" stroke="#A9C2CB" stroke-width="1.11" stroke-miterlimit="10"/>
<path d="M94.7511 34.8777H0.248901" stroke="#A9C2CB" stroke-width="1.11" stroke-miterlimit="10"/>
<path d="M94.7511 41.7996H0.248901" stroke="#A9C2CB" stroke-width="1.11" stroke-miterlimit="10"/>
<path d="M94.7511 48.7213H0.248901" stroke="#A9C2CB" stroke-width="1.11" stroke-miterlimit="10"/>
<path d="M86.6813 13.6993H64.6974L42.8926 20.9396L31.6418 41.6055L20.8489 27.9162L9.86688 41.6055" stroke="url(#paint0_linear_3_232)" stroke-miterlimit="10"/>
<path d="M11.2757 41.6005C11.2757 41.879 11.1931 42.1513 11.0383 42.3829C10.8835 42.6145 10.6635 42.795 10.406 42.9016C10.1486 43.0081 9.86532 43.036 9.59203 42.9817C9.31874 42.9274 9.06771 42.7932 8.87068 42.5963C8.67365 42.3993 8.53947 42.1484 8.48511 41.8752C8.43075 41.6021 8.45865 41.3189 8.56528 41.0616C8.67191 40.8043 8.85249 40.5843 9.08418 40.4296C9.31586 40.2748 9.58825 40.1923 9.86689 40.1923C10.2405 40.1923 10.5989 40.3406 10.8631 40.6047C11.1273 40.8688 11.2757 41.227 11.2757 41.6005Z" fill="url(#paint1_linear_3_232)"/>
<path d="M20.8489 29.3293C21.627 29.3293 22.2578 28.6988 22.2578 27.9211C22.2578 27.1433 21.627 26.5128 20.8489 26.5128C20.0708 26.5128 19.4401 27.1433 19.4401 27.9211C19.4401 28.6988 20.0708 29.3293 20.8489 29.3293Z" fill="url(#paint2_linear_3_232)"/>
<path d="M33.0556 41.6005C33.0566 41.8804 32.9744 42.1544 32.8194 42.3875C32.6644 42.6207 32.4437 42.8026 32.1851 42.9102C31.9266 43.0178 31.6419 43.0462 31.3672 42.9918C31.0925 42.9374 30.8401 42.8027 30.6421 42.6048C30.444 42.4068 30.3093 42.1546 30.2549 41.88C30.2005 41.6054 30.2289 41.3208 30.3365 41.0624C30.4442 40.8039 30.6262 40.5833 30.8594 40.4284C31.0927 40.2735 31.3667 40.1913 31.6468 40.1923C32.02 40.1936 32.3776 40.3424 32.6415 40.6062C32.9054 40.87 33.0543 41.2274 33.0556 41.6005Z" fill="url(#paint3_linear_3_232)"/>
<path d="M44.3015 20.9395C44.3015 21.218 44.2188 21.4903 44.064 21.7219C43.9092 21.9535 43.6892 22.134 43.4318 22.2406C43.1743 22.3471 42.8911 22.375 42.6178 22.3207C42.3445 22.2664 42.0935 22.1322 41.8964 21.9353C41.6994 21.7383 41.5652 21.4874 41.5108 21.2142C41.4565 20.9411 41.4844 20.6579 41.591 20.4006C41.6976 20.1433 41.8782 19.9233 42.1099 19.7686C42.3416 19.6139 42.614 19.5313 42.8926 19.5313C43.0778 19.5306 43.2613 19.5666 43.4325 19.6371C43.6038 19.7077 43.7593 19.8114 43.8903 19.9423C44.0212 20.0732 44.125 20.2287 44.1956 20.3998C44.2661 20.571 44.3021 20.7544 44.3015 20.9395Z" fill="url(#paint4_linear_3_232)"/>
<path d="M64.6974 15.1075C65.4754 15.1075 66.1062 14.477 66.1062 13.6993C66.1062 12.9215 65.4754 12.291 64.6974 12.291C63.9193 12.291 63.2885 12.9215 63.2885 13.6993C63.2885 14.477 63.9193 15.1075 64.6974 15.1075Z" fill="url(#paint5_linear_3_232)"/>
<path d="M88.0952 13.6993C88.0961 13.9798 88.0135 14.2543 87.8579 14.4878C87.7022 14.7213 87.4806 14.9032 87.2211 15.0103C86.9617 15.1174 86.6763 15.1449 86.4012 15.0893C86.1261 15.0337 85.8737 14.8975 85.6763 14.6981C85.4789 14.4986 85.3453 14.245 85.2927 13.9694C85.24 13.6938 85.2705 13.4088 85.3804 13.1507C85.4904 12.8925 85.6747 12.6729 85.9099 12.5198C86.1451 12.3667 86.4206 12.2871 86.7012 12.291C87.0719 12.2963 87.4257 12.4468 87.6864 12.7102C87.9471 12.9735 88.0939 13.3287 88.0952 13.6993Z" fill="url(#paint6_linear_3_232)"/>
</g>
<defs>
<linearGradient id="paint0_linear_3_232" x1="9.67273" y1="27.7519" x2="86.6813" y2="27.7519" gradientUnits="userSpaceOnUse">
<stop stop-color="#171E27"/>
<stop offset="1" stop-color="#A9C2CB"/>
</linearGradient>
<linearGradient id="paint1_linear_3_232" x1="8.45804" y1="41.6055" x2="11.2757" y2="41.6055" gradientUnits="userSpaceOnUse">
<stop stop-color="#171E27"/>
<stop offset="1" stop-color="#A9C2CB"/>
</linearGradient>
<linearGradient id="paint2_linear_3_232" x1="19.4401" y1="27.9211" x2="22.2578" y2="27.9211" gradientUnits="userSpaceOnUse">
<stop stop-color="#171E27"/>
<stop offset="1" stop-color="#A9C2CB"/>
</linearGradient>
<linearGradient id="paint3_linear_3_232" x1="30.2329" y1="41.6055" x2="33.0556" y2="41.6055" gradientUnits="userSpaceOnUse">
<stop stop-color="#A9C2CB"/>
<stop offset="0.0001" stop-color="#171E27"/>
<stop offset="1" stop-color="#A9C2CB"/>
</linearGradient>
<linearGradient id="paint4_linear_3_232" x1="41.4838" y1="20.9395" x2="44.3015" y2="20.9395" gradientUnits="userSpaceOnUse">
<stop stop-color="#171E27"/>
<stop offset="1" stop-color="#A9C2CB"/>
</linearGradient>
<linearGradient id="paint5_linear_3_232" x1="63.2835" y1="13.6993" x2="66.1062" y2="13.6993" gradientUnits="userSpaceOnUse">
<stop stop-color="#171E27"/>
<stop offset="1" stop-color="#A9C2CB"/>
</linearGradient>
<linearGradient id="paint6_linear_3_232" x1="85.2725" y1="13.6993" x2="88.0952" y2="13.6993" gradientUnits="userSpaceOnUse">
<stop stop-color="#171E27"/>
<stop offset="1" stop-color="#A9C2CB"/>
</linearGradient>
<clipPath id="clip0_3_232">
<rect width="95" height="49" fill="white"/>
</clipPath>
</defs>
</symbol>

<symbol viewBox="0 0 47 47" fill="none" id="graph3">
<g clip-path="url(#clip0_3_257)">
<path d="M23.5297 23.5025L1.2337 16.2423C2.71234 11.4937 5.67997 7.34903 9.6963 4.42319C13.7126 1.49735 18.5637 -0.0537544 23.5297 9.13197e-06V23.5025Z" fill="#171E27" fill-opacity="0.6"/>
<path d="M23.5296 23.5025L37.3234 42.5139C32.2885 46.1772 26.0069 47.6872 19.8605 46.7119C13.714 45.7366 8.20608 42.3558 4.54827 37.3132C2.31857 34.3398 0.849402 30.8651 0.269026 27.1922C-0.31135 23.5193 0.0147052 19.7599 1.21873 16.2423L23.5296 23.5025Z" fill="#171E27" fill-opacity="0.8"/>
<path d="M23.5297 23.5025L37.3235 4.49109C39.8164 6.30462 41.9281 8.59232 43.5381 11.2235C45.148 13.8546 46.2246 16.7777 46.7063 19.8257C47.1881 22.8737 47.0655 25.9869 46.3457 28.9875C45.6258 31.988 44.3228 34.8171 42.5111 37.3132C41.08 39.3213 39.3271 41.0786 37.3235 42.5139L23.5297 23.5025Z" fill="#A9C2CB" fill-opacity="0.6"/>
<path d="M23.5297 23.5025V-7.55489e-06C28.4938 -0.0766497 33.3437 1.49369 37.3235 4.46626L23.5297 23.5025Z" fill="#171E27" fill-opacity="0.2"/>
</g>
<defs>
<clipPath id="clip0_3_257">
<rect width="47" height="47" fill="white"/>
</clipPath>
</defs>
</symbol>

<symbol  viewBox="0 0 16 16" fill="none" id="graph4">
<path d="M8.61204 2.16188L8 2.81943L7.38796 2.16188C5.69786 0.346106 2.95767 0.346105 1.26757 2.16188C-0.422524 3.97765 -0.422525 6.9216 1.26757 8.73737L6.77592 14.6553C7.45196 15.3816 8.54804 15.3816 9.22408 14.6553L14.7324 8.73737C16.4225 6.9216 16.4225 3.97765 14.7324 2.16188C13.0423 0.346106 10.3021 0.346106 8.61204 2.16188Z" fill="white"/>
</symbol>

<symbol viewBox="0 0 125 29" fill="none" id="graph5">
<g clip-path="url(#clip0_3_277)">
<path d="M0.75708 26.9588C0.75708 26.9588 2.75661 28.9543 9.41526 25.8502C16.0739 22.7461 12.7478 28.2239 15.8862 27.5914C19.0247 26.9588 19.2123 23.8156 22.0466 24.885C24.8809 25.9545 24.5444 28.5109 26.874 25.2959C29.2035 22.0809 29.3718 0.762939 29.3718 0.762939L31.0413 26.1958C31.0413 26.1958 37.5123 29.2999 42.3655 21.3114C47.2187 13.3229 50.8554 19.8702 51.1919 23.196C51.5284 26.5219 56.3687 29.0652 59.0153 25.4198C59.0153 25.4198 60.8531 23.6395 63.0144 27.1936C65.1757 30.7477 67.68 24.1938 67.68 24.1938C67.68 24.1938 70.8443 22.8895 72.0091 27.3044L76.3382 0.77598L78.836 26.9718C80.5509 27.3685 82.348 27.1803 83.9454 26.4367C85.5428 25.6932 86.8501 24.4364 87.6624 22.8635C90.8267 17.203 95.4923 15.3184 99.1549 23.8612C99.1549 23.8612 102.474 30.7216 110.02 24.8394C110.02 24.8394 114.705 21.3962 117.571 25.7263H124.211" stroke="url(#paint0_linear_3_277)" stroke-width="2.34" stroke-linecap="round" stroke-linejoin="round"/>
</g>
<defs>
<linearGradient id="paint0_linear_3_277" x1="-2.50705e-05" y1="14.4967" x2="124.994" y2="14.4967" gradientUnits="userSpaceOnUse">
<stop stop-color="#171E27"/>
<stop offset="1" stop-color="#A9C2CB"/>
</linearGradient>
<clipPath id="clip0_3_277">
<rect width="125" height="29" fill="white"/>
</clipPath>
</defs>
</symbol>

<symbol  viewBox="0 0 14 16" fill="none" id="timeIcon">
<path fill-rule="evenodd" clip-rule="evenodd" d="M4.8041 1.85299C5.50127 1.65581 6.23766 1.55005 6.99998 1.55005C7.76231 1.55005 8.49869 1.65581 9.19586 1.85299C9.59444 1.96572 10.0089 1.734 10.1217 1.33542C10.2344 0.936843 10.0027 0.522344 9.6041 0.409612C8.77541 0.175228 7.90169 0.0500488 6.99998 0.0500488C6.09827 0.0500488 5.22455 0.175228 4.39586 0.409612C3.99728 0.522344 3.76556 0.936843 3.87829 1.33542C3.99102 1.734 4.40552 1.96572 4.8041 1.85299ZM13.8 9.20005C13.8 12.9556 10.7555 16 6.99998 16C3.24445 16 0.199982 12.9556 0.199982 9.20005C0.199982 5.44451 3.24445 2.40005 6.99998 2.40005C10.7555 2.40005 13.8 5.44451 13.8 9.20005ZM7.59997 5.60002C7.59997 5.26865 7.33134 5.00002 6.99997 5.00002C6.6686 5.00002 6.39997 5.26865 6.39997 5.60002V8.56056C6.04129 8.76805 5.79997 9.15586 5.79997 9.60002C5.79997 10.2628 6.33723 10.8 6.99997 10.8C7.66271 10.8 8.19997 10.2628 8.19997 9.60002C8.19997 9.15586 7.95865 8.76805 7.59997 8.56056V5.60002Z" fill="white"/>
</symbol>


<symbol  viewBox="0 0 16 12"  id="message2">
<path d="M14.5 0H1.50001C0.672854 0 0 0.672853 0 1.50001V10.5C0 11.3271 0.672854 12 1.50001 12H14.5C15.3271 12 16 11.3271 16 10.5V1.50001C16 0.672853 15.3271 0 14.5 0ZM14.5 0.999994C14.5679 0.999994 14.6325 1.01409 14.6916 1.0387L8 6.83838L1.30833 1.0387C1.36742 1.01412 1.43204 0.999994 1.49998 0.999994H14.5ZM14.5 11H1.50001C1.22414 11 0.999996 10.7759 0.999996 10.5V2.09521L7.67236 7.87792C7.76661 7.95944 7.8833 7.99999 8 7.99999C8.1167 7.99999 8.23339 7.95948 8.32764 7.87792L15 2.09521V10.5C15 10.7759 14.7759 11 14.5 11Z" />
</symbol>

<symbol  viewBox="0 0 10 16"  id="phone2">
<path d="M8.5 0H1.5C0.672848 0 0 0.672848 0 1.5V14.5C0 15.3272 0.672848 16 1.5 16H8.5C9.32715 16 10 15.3272 10 14.5V1.5C10 0.672848 9.32715 0 8.5 0ZM1.5 1H8.5C8.77588 1 9 1.22412 9 1.5V12H1V1.5C1 1.22412 1.22412 1 1.5 1ZM8.5 15H1.5C1.22412 15 1 14.7759 1 14.5V13H9V14.5C9 14.7759 8.77588 15 8.5 15Z" />
</symbol>



<symbol viewBox="0 0 14 14"  id="phone3">
<path d="M11.9958 9.12262L10.1576 8.91275C9.7162 8.8621 9.28199 9.01407 8.97081 9.32525L7.63924 10.6568C5.59123 9.61472 3.91229 7.94302 2.8702 5.88776L4.209 4.54895C4.52018 4.23776 4.67216 3.80355 4.6215 3.36211L4.41163 1.53843C4.32479 0.807506 3.70966 0.257507 2.97151 0.257507H1.71955C0.90179 0.257507 0.221532 0.937769 0.27219 1.75553C0.655739 7.93578 5.59847 12.8713 11.7714 13.2548C12.5892 13.3055 13.2695 12.6252 13.2695 11.8075V10.5555C13.2767 9.82459 12.7267 9.20946 11.9958 9.12262Z" fill="#212121"/>
</symbol>

<symbol  viewBox="0 0 16 12" id="email2">
<path d="M14 0H2C1.175 0 0.5075 0.675 0.5075 1.5L0.5 10.5C0.5 11.325 1.175 12 2 12H14C14.825 12 15.5 11.325 15.5 10.5V1.5C15.5 0.675 14.825 0 14 0ZM13.7 3.1875L8.3975 6.5025C8.1575 6.6525 7.8425 6.6525 7.6025 6.5025L2.3 3.1875C2.1125 3.0675 2 2.865 2 2.6475C2 2.145 2.5475 1.845 2.975 2.1075L8 5.25L13.025 2.1075C13.4525 1.845 14 2.145 14 2.6475C14 2.865 13.8875 3.0675 13.7 3.1875Z" />
</symbol>

<symbol  viewBox="0 0 20 20" id="linkedin2">
<g clip-path="url(#clip0_5769_5334)">
<path d="M19.9951 20V19.9992H20.0001V12.6642C20.0001 9.07587 19.2276 6.31171 15.0326 6.31171C13.0159 6.31171 11.6626 7.41837 11.1101 8.46754H11.0517V6.64671H7.07422V19.9992H11.2159V13.3875C11.2159 11.6467 11.5459 9.96337 13.7017 9.96337C15.8259 9.96337 15.8576 11.95 15.8576 13.4992V20H19.9951Z" />
<path d="M0.330078 6.64746H4.47675V20H0.330078V6.64746Z" />
<path d="M2.40167 0C1.07583 0 0 1.07583 0 2.40167C0 3.7275 1.07583 4.82583 2.40167 4.82583C3.7275 4.82583 4.80333 3.7275 4.80333 2.40167C4.8025 1.07583 3.72667 0 2.40167 0V0Z" />
</g>
<defs>
<clipPath id="clip0_5769_5334">
<rect width="20" height="20" fill="white"/>
</clipPath>
</defs>
</symbol>

<symbol  viewBox="0 0 20 20" id="facebook2">
<g clip-path="url(#clip0_5769_5340)">
<path d="M13.3308 3.32083H15.1566V0.140833C14.8416 0.0975 13.7583 0 12.4966 0C9.8641 0 8.06076 1.65583 8.06076 4.69917V7.5H5.15576V11.055H8.06076V20H11.6224V11.0558H14.4099L14.8524 7.50083H11.6216V5.05167C11.6224 4.02417 11.8991 3.32083 13.3308 3.32083Z" />
</g>
<defs>
<clipPath id="clip0_5769_5340">
<rect width="20" height="20" fill="white"/>
</clipPath>
</defs>
</symbol>

<symbol  shape-rendering="geometricPrecision" text-rendering="geometricPrecision" id="twitter2" image-rendering="optimizeQuality" fill-rule="evenodd" clip-rule="evenodd" viewBox="0 0 512 462.799"><path fill-rule="nonzero" d="M403.229 0h78.506L310.219 196.04 512 462.799H354.002L230.261 301.007 88.669 462.799h-78.56l183.455-209.683L0 0h161.999l111.856 147.88L403.229 0zm-27.556 415.805h43.505L138.363 44.527h-46.68l283.99 371.278z"/></symbol>

<symbol  viewBox="0 0 20 20" fill="none" id="play">
<path fill-rule="evenodd" clip-rule="evenodd" d="M0 10.0058C0 4.48625 4.48842 0 10 0C15.5116 0 20 4.48625 20 10.0058C20 15.5137 15.5116 20 10 20C4.48842 20 0 15.5137 0 10.0058ZM13.668 11.0178C13.7741 10.9117 13.9093 10.7477 13.9382 10.7091C14.0927 10.5065 14.1699 10.2557 14.1699 10.0058C14.1699 9.72504 14.083 9.46454 13.9189 9.25229C13.9055 9.23885 13.8791 9.21019 13.8448 9.17284C13.7806 9.10296 13.6885 9.00264 13.6004 8.91462C12.8089 8.06561 10.7432 6.67631 9.66216 6.25181C9.49807 6.18524 9.08301 6.03956 8.861 6.02991C8.64865 6.02991 8.44595 6.07815 8.2529 6.17463C8.01158 6.3097 7.81853 6.52195 7.71236 6.77279C7.64479 6.94645 7.53861 7.46744 7.53861 7.47709C7.43243 8.04631 7.37452 8.9725 7.37452 9.99518C7.37452 10.9706 7.43243 11.8572 7.51931 12.4361C7.52169 12.4385 7.53 12.4799 7.5429 12.5442C7.58211 12.7397 7.6638 13.1471 7.75097 13.314C7.96332 13.7192 8.37838 13.9701 8.82239 13.9701H8.861C9.15058 13.9604 9.75869 13.7096 9.75869 13.7C10.7819 13.2754 12.7992 11.9537 13.61 11.0757L13.668 11.0178Z" fill="white"/>
</symbol>

<symbol  viewBox="0 0 24 24" fill="none" id="astronomy">
<path fill-rule="evenodd" clip-rule="evenodd" d="M2.37076 2.37076C2.70131 2.04021 3.24704 1.82406 4.10117 1.84789C4.95798 1.8718 6.03534 2.13893 7.27408 2.66983C8.26328 3.09377 9.32669 3.67353 10.4245 4.39444C9.35112 5.23942 8.27832 6.19077 7.23458 7.23451C6.19081 8.27829 5.23943 9.35114 4.39444 10.4245C3.67353 9.32674 3.09377 8.26332 2.66982 7.27412C2.13893 6.03536 1.8718 4.958 1.84789 4.10118C1.82406 3.24704 2.04021 2.70131 2.37076 2.37076ZM8.00132 0.972941C9.27108 1.51713 10.6244 2.27951 12 3.23011C13.3757 2.27951 14.7289 1.51714 15.9987 0.972955C17.3649 0.387448 18.6795 0.0350545 19.8473 0.00246589C21.0179 -0.0301975 22.1295 0.260182 22.9347 1.06534C23.7398 1.87051 24.0302 2.98215 23.9975 4.15269C23.965 5.32055 23.6126 6.63518 23.0271 8.00136C22.4829 9.27113 21.7205 10.6244 20.7699 12.0001C21.7205 13.3757 22.4828 14.7289 23.027 15.9986C23.6125 17.3648 23.9649 18.6794 23.9974 19.8473C24.0301 21.0179 23.7397 22.1295 22.9346 22.9347C22.1294 23.7398 21.0178 24.0302 19.8472 23.9975C18.6794 23.9649 17.3647 23.6126 15.9986 23.027C14.7289 22.4829 13.3756 21.7205 12 20.77C10.6244 21.7205 9.27116 22.4829 8.00143 23.0271C6.63526 23.6126 5.32063 23.965 4.15278 23.9975C2.98224 24.0302 1.8706 23.7398 1.06544 22.9347C0.260278 22.1295 -0.0300992 21.0179 0.00256402 19.8473C0.0351523 18.6795 0.387544 17.3648 0.973047 15.9987C1.51721 14.7289 2.27956 13.3757 3.23011 12.0001C2.2795 10.6244 1.51712 9.27112 0.972936 8.00135C0.387432 6.63517 0.0350411 5.32054 0.00245273 4.15268C-0.0302104 2.98214 0.260167 1.87049 1.06533 1.06533C1.87048 0.260169 2.98213 -0.0302107 4.15267 0.00245276C5.32052 0.0350413 6.63515 0.387435 8.00132 0.972941ZM8.54001 8.53994C9.68097 7.39898 10.8487 6.38365 12 5.50982C13.1513 6.38365 14.319 7.39897 15.46 8.53993C16.601 9.68094 17.6164 10.8487 18.4902 12.0001C17.6164 13.1514 16.6011 14.3191 15.4601 15.4601C14.3191 16.6011 13.1514 17.6164 12 18.4903C10.8486 17.6164 9.6809 16.6011 8.5399 15.4601C7.39895 14.3191 6.38363 13.1514 5.50981 12.0001C6.38366 10.8487 7.39901 9.68095 8.54001 8.53994ZM16.7654 7.2345C17.8092 8.27828 18.7606 9.35113 19.6056 10.4245C20.3265 9.32674 20.9062 8.26333 21.3302 7.27413C21.8611 6.03538 22.1282 4.95802 22.1521 4.1012C22.1759 3.24706 21.9598 2.70132 21.6292 2.37077C21.2987 2.04022 20.753 1.82407 19.8988 1.84791C19.042 1.87181 17.9647 2.13895 16.7259 2.66984C15.7367 3.09378 14.6733 3.67354 13.5756 4.39444C14.6489 5.23942 15.7217 6.19076 16.7654 7.2345ZM16.7655 16.7655C17.8093 15.7218 18.7606 14.649 19.6056 13.5756C20.3264 14.6734 20.9061 15.7367 21.3301 16.7259C21.861 17.9646 22.1281 19.042 22.152 19.8988C22.1758 20.7529 21.9597 21.2987 21.6291 21.6292C21.2986 21.9598 20.7529 22.1759 19.8987 22.1521C19.0419 22.1282 17.9646 21.8611 16.7258 21.3302C15.7366 20.9062 14.6733 20.3265 13.5756 19.6056C14.6489 18.7606 15.7218 17.8093 16.7655 16.7655ZM7.23447 16.7655C8.27824 17.8093 9.35108 18.7606 10.4245 19.6056C9.32672 20.3265 8.26336 20.9062 7.27419 21.3302C6.03545 21.8611 4.9581 22.1282 4.10128 22.1521C3.24715 22.1759 2.70142 21.9598 2.37087 21.6292C2.04032 21.2987 1.82417 20.753 1.848 19.8988C1.87191 19.042 2.13904 17.9646 2.66994 16.7259C3.09386 15.7367 3.67358 14.6734 4.39445 13.5756C5.23941 14.649 6.19075 15.7218 7.23447 16.7655ZM12 14.4617C13.3595 14.4617 14.4615 13.3596 14.4615 12.0002C14.4615 10.6407 13.3595 9.53862 12 9.53862C10.6405 9.53862 9.53846 10.6407 9.53846 12.0002C9.53846 13.3596 10.6405 14.4617 12 14.4617Z" fill="white"/>
</symbol>

<symbol viewBox="0 0 22 24" fill="none" id="latest-discoveries">
<path fill-rule="evenodd" clip-rule="evenodd" d="M8.39997 0C7.07449 0 5.99998 1.07451 5.99998 2.39999C5.99998 3.72547 7.07449 4.79998 8.39997 4.79998H13.2C14.5254 4.79998 15.5999 3.72547 15.5999 2.39999C15.5999 1.07451 14.5254 0 13.2 0H8.39997ZM4.19998 2.40006H4C1.79086 2.40006 0 4.19093 0 6.40006V20C0 22.2091 1.79086 24 4 24H17.5999C19.8091 24 21.5999 22.2091 21.5999 20V6.40006C21.5999 4.19093 19.8091 2.40006 17.5999 2.40006H17.3999C17.3999 4.71964 15.5195 6.60003 13.2 6.60003H8.39997C6.08039 6.60003 4.2 4.71964 4.19998 2.40006ZM5.24998 9.59994C5.24998 9.18573 5.58576 8.84994 5.99998 8.84994H15.5999C16.0142 8.84994 16.3499 9.18573 16.3499 9.59994C16.3499 10.0142 16.0142 10.3499 15.5999 10.3499H5.99998C5.58576 10.3499 5.24998 10.0142 5.24998 9.59994ZM5.99998 13.6499C5.58576 13.6499 5.24998 13.9857 5.24998 14.3999C5.24998 14.8141 5.58576 15.1499 5.99998 15.1499H15.5999C16.0142 15.1499 16.3499 14.8141 16.3499 14.3999C16.3499 13.9857 16.0142 13.6499 15.5999 13.6499H5.99998ZM5.24998 19.1999C5.24998 18.7857 5.58576 18.4499 5.99998 18.4499H10.8C11.2142 18.4499 11.55 18.7857 11.55 19.1999C11.55 19.6141 11.2142 19.9499 10.8 19.9499H5.99998C5.58576 19.9499 5.24998 19.6141 5.24998 19.1999Z" fill="white"/>
</symbol>

<symbol  viewBox="0 0 24 24" fill="none" id="space-exploration">
<path fill-rule="evenodd" clip-rule="evenodd" d="M18.3709 0.24607C17.5208 0.752626 17.2295 1.87453 17.7203 2.75191L20.6827 8.04738C21.1735 8.92476 22.2606 9.22537 23.1107 8.71882C23.9608 8.21226 24.2521 7.09036 23.7613 6.21298L20.7989 0.917508C20.3081 0.0401265 19.221 -0.260487 18.3709 0.24607ZM15.9711 3.08834L7.16239 8.33709C6.02889 9.0125 5.64052 10.5084 6.29495 11.6782L6.46393 11.9803C6.45701 11.9841 6.45013 11.9881 6.44327 11.9922L2.07814 14.5932L1.62466 13.7826C1.39077 13.3645 0.862215 13.2152 0.444107 13.449C0.0259996 13.6829 -0.123333 14.2115 0.110563 14.6296L1.88799 17.8069C2.12188 18.225 2.65044 18.3743 3.06855 18.1404C3.48665 17.9065 3.63599 17.378 3.40209 16.9599L2.92547 16.1079L7.3111 13.4947L7.4799 13.7964C8.13433 14.9662 9.58374 15.3671 10.7172 14.6917L12.3021 13.7473L7.69161 22.7365C7.47297 23.1628 7.6413 23.6856 8.06759 23.9042C8.49387 24.1229 9.01669 23.9545 9.23532 23.5282L14.3882 13.4816L19.5411 23.5282C19.7597 23.9545 20.2826 24.1229 20.7088 23.9042C21.1351 23.6856 21.3035 23.1628 21.0848 22.7365L15.4977 11.8432L19.5397 9.43469C19.4021 9.26912 19.2777 9.08873 19.1689 8.89435L16.2065 3.59889C16.1137 3.43299 16.0354 3.26227 15.9711 3.08834Z" fill="white"/>
</symbol>

<symbol viewBox="0 0 24 24" fill="none" id="space-technology">
<path fill-rule="evenodd" clip-rule="evenodd" d="M14.8291 6.72185C14.2309 6.40208 13.5845 6.18774 12.9182 6.08591V3.15071e-06C14.5818 0.125119 16.2046 0.59558 17.6817 1.3851C19.4245 2.31667 20.9107 3.66369 22.0087 5.30684C23.1066 6.94998 23.7823 8.83854 23.976 10.8052C23.9851 10.8974 23.9931 10.9896 24 11.0818H17.9141C17.7824 10.2199 17.4631 9.3959 16.9772 8.66875C16.4322 7.85303 15.6943 7.18432 14.8291 6.72185ZM5.34068 1.99138C7.06618 0.838436 9.05636 0.154868 11.1157 0V6.08591C10.256 6.21729 9.43171 6.53565 8.70259 7.02283C7.72155 7.67834 6.95692 8.61005 6.50539 9.70013C6.05387 10.7902 5.93573 11.9897 6.16591 13.1469C6.33699 14.007 6.69477 14.815 7.20974 15.5157L2.90634 19.8191C1.5597 18.2535 0.635769 16.3628 0.230907 14.3275C-0.232768 11.9964 0.00520674 9.58021 0.914739 7.3844C1.82427 5.1886 3.36451 3.31181 5.34068 1.99138ZM4.18094 21.0937C5.44575 22.1816 6.9259 22.9964 8.52863 23.4826C10.4197 24.0562 12.4231 24.1546 14.3613 23.7691C16.2815 23.3871 18.079 22.5419 19.5977 21.3072L14.1816 17.5421C13.8583 17.6681 13.5235 17.7659 13.1808 17.8341C12.2186 18.0255 11.224 17.9766 10.2852 17.6918C9.63608 17.4949 9.02745 17.1894 8.48433 16.7903L4.18094 21.0937ZM17.5285 14.266C17.7128 13.821 17.8419 13.357 17.9141 12.8843H24C23.9047 14.1514 23.6087 15.3998 23.1191 16.5818C22.5917 17.8551 21.851 19.0239 20.9328 20.04L15.881 16.5282C16.6014 15.9158 17.1663 15.1405 17.5285 14.266Z" fill="white"/>
</symbol>



</svg>