<svg xmlns="http://www.w3.org/2000/svg">
<symbol  viewBox="0 0 24 24" id="burger2">
<path d="M16 5.17497L18.83 8.00497L16 10.835L13.17 8.00497L16 5.17497ZM8.34003 5.65497V9.65497H4.34003V5.65497H8.34003ZM18.34 15.655V19.655H14.34V15.655H18.34ZM8.34003 15.655V19.655H4.34003V15.655H8.34003ZM16 2.34497L10.34 7.99497L16 13.655L21.66 7.99497L16 2.34497ZM10.34 3.65497H2.34003V11.655H10.34V3.65497ZM20.34 13.655H12.34V21.655H20.34V13.655ZM10.34 13.655H2.34003V21.655H10.34V13.655Z" fill="#0D0F12"/>
</symbol>


<symbol  viewBox="0 0 16 12"  id="message2">
<path d="M14.5 0H1.50001C0.672854 0 0 0.672853 0 1.50001V10.5C0 11.3271 0.672854 12 1.50001 12H14.5C15.3271 12 16 11.3271 16 10.5V1.50001C16 0.672853 15.3271 0 14.5 0ZM14.5 0.999994C14.5679 0.999994 14.6325 1.01409 14.6916 1.0387L8 6.83838L1.30833 1.0387C1.36742 1.01412 1.43204 0.999994 1.49998 0.999994H14.5ZM14.5 11H1.50001C1.22414 11 0.999996 10.7759 0.999996 10.5V2.09521L7.67236 7.87792C7.76661 7.95944 7.8833 7.99999 8 7.99999C8.1167 7.99999 8.23339 7.95948 8.32764 7.87792L15 2.09521V10.5C15 10.7759 14.7759 11 14.5 11Z" />
</symbol>

<symbol  viewBox="0 0 10 16"  id="phone2">
<path d="M8.5 0H1.5C0.672848 0 0 0.672848 0 1.5V14.5C0 15.3272 0.672848 16 1.5 16H8.5C9.32715 16 10 15.3272 10 14.5V1.5C10 0.672848 9.32715 0 8.5 0ZM1.5 1H8.5C8.77588 1 9 1.22412 9 1.5V12H1V1.5C1 1.22412 1.22412 1 1.5 1ZM8.5 15H1.5C1.22412 15 1 14.7759 1 14.5V13H9V14.5C9 14.7759 8.77588 15 8.5 15Z" />
</symbol>



<symbol viewBox="0 0 14 14"  id="phone3">
<path d="M11.9958 9.12262L10.1576 8.91275C9.7162 8.8621 9.28199 9.01407 8.97081 9.32525L7.63924 10.6568C5.59123 9.61472 3.91229 7.94302 2.8702 5.88776L4.209 4.54895C4.52018 4.23776 4.67216 3.80355 4.6215 3.36211L4.41163 1.53843C4.32479 0.807506 3.70966 0.257507 2.97151 0.257507H1.71955C0.90179 0.257507 0.221532 0.937769 0.27219 1.75553C0.655739 7.93578 5.59847 12.8713 11.7714 13.2548C12.5892 13.3055 13.2695 12.6252 13.2695 11.8075V10.5555C13.2767 9.82459 12.7267 9.20946 11.9958 9.12262Z" fill="#212121"/>
</symbol>

<symbol  viewBox="0 0 16 12" id="email2">
<path d="M14 0H2C1.175 0 0.5075 0.675 0.5075 1.5L0.5 10.5C0.5 11.325 1.175 12 2 12H14C14.825 12 15.5 11.325 15.5 10.5V1.5C15.5 0.675 14.825 0 14 0ZM13.7 3.1875L8.3975 6.5025C8.1575 6.6525 7.8425 6.6525 7.6025 6.5025L2.3 3.1875C2.1125 3.0675 2 2.865 2 2.6475C2 2.145 2.5475 1.845 2.975 2.1075L8 5.25L13.025 2.1075C13.4525 1.845 14 2.145 14 2.6475C14 2.865 13.8875 3.0675 13.7 3.1875Z" />
</symbol>

<symbol  viewBox="0 0 20 20" id="linkedin2">
<g clip-path="url(#clip0_5769_5334)">
<path d="M19.9951 20V19.9992H20.0001V12.6642C20.0001 9.07587 19.2276 6.31171 15.0326 6.31171C13.0159 6.31171 11.6626 7.41837 11.1101 8.46754H11.0517V6.64671H7.07422V19.9992H11.2159V13.3875C11.2159 11.6467 11.5459 9.96337 13.7017 9.96337C15.8259 9.96337 15.8576 11.95 15.8576 13.4992V20H19.9951Z" />
<path d="M0.330078 6.64746H4.47675V20H0.330078V6.64746Z" />
<path d="M2.40167 0C1.07583 0 0 1.07583 0 2.40167C0 3.7275 1.07583 4.82583 2.40167 4.82583C3.7275 4.82583 4.80333 3.7275 4.80333 2.40167C4.8025 1.07583 3.72667 0 2.40167 0V0Z" />
</g>
<defs>
<clipPath id="clip0_5769_5334">
<rect width="20" height="20" fill="white"/>
</clipPath>
</defs>
</symbol>

<symbol  viewBox="0 0 20 20" id="facebook2">
<g clip-path="url(#clip0_5769_5340)">
<path d="M13.3308 3.32083H15.1566V0.140833C14.8416 0.0975 13.7583 0 12.4966 0C9.8641 0 8.06076 1.65583 8.06076 4.69917V7.5H5.15576V11.055H8.06076V20H11.6224V11.0558H14.4099L14.8524 7.50083H11.6216V5.05167C11.6224 4.02417 11.8991 3.32083 13.3308 3.32083Z" />
</g>
<defs>
<clipPath id="clip0_5769_5340">
<rect width="20" height="20" fill="white"/>
</clipPath>
</defs>
</symbol>

<symbol  shape-rendering="geometricPrecision" text-rendering="geometricPrecision" id="twitter2" image-rendering="optimizeQuality" fill-rule="evenodd" clip-rule="evenodd" viewBox="0 0 512 462.799"><path fill-rule="nonzero" d="M403.229 0h78.506L310.219 196.04 512 462.799H354.002L230.261 301.007 88.669 462.799h-78.56l183.455-209.683L0 0h161.999l111.856 147.88L403.229 0zm-27.556 415.805h43.505L138.363 44.527h-46.68l283.99 371.278z"/></symbol>







</svg>